<?xml version="1.0" encoding="UTF-8" standalone="no"?>
<!DOCTYPE svg PUBLIC "-//W3C//DTD SVG 1.1//EN" "http://www.w3.org/Graphics/SVG/1.1/DTD/svg11.dtd">
<svg class="svg-icon" xmlns="http://www.w3.org/2000/svg" version="1.1" viewBox="0.00 0.00 260.00 260.00">
<path fill="#ffffff" d="
  M 129.11 86.38
  C 140.33 80.85 143.19 68.53 143.69 56.36
  C 143.89 51.42 141.77 45.30 135.99 44.72
  Q 121.87 43.28 107.86 45.80
  Q 101.64 46.92 98.80 48.80
  C 93.59 52.26 91.29 64.89 90.19 70.78
  A 1.54 1.54 0.0 0 1 88.68 72.03
  L 63.02 71.98
  Q 62.64 71.97 62.70 71.60
  Q 65.30 53.66 73.24 39.80
  C 79.78 28.37 92.64 23.01 105.25 21.38
  Q 130.74 18.09 151.74 22.48
  Q 172.53 26.83 172.15 48.51
  Q 171.89 63.98 167.33 78.75
  C 163.56 90.95 156.96 98.34 146.47 104.08
  C 138.21 108.60 128.16 112.60 120.05 117.29
  C 114.08 120.74 110.70 127.81 108.88 134.34
  A 1.70 1.70 0.0 0 1 107.24 135.58
  L 82.20 135.65
  Q 81.67 135.65 81.76 135.12
  C 83.92 122.56 87.73 109.75 97.44 102.12
  Q 100.85 99.43 109.46 95.59
  Q 119.38 91.17 129.11 86.38
  Z"
/>
<path fill="#ffffff" d="
  M 195.74 139.85
  C 187.74 137.36 180.42 138.45 171.49 139.57
  Q 166.27 140.23 164.45 144.97
  Q 162.23 150.76 161.00 156.86
  Q 160.88 157.46 160.28 157.45
  L 142.26 157.33
  A 0.48 0.48 0.0 0 1 141.80 156.74
  C 143.73 148.53 147.21 134.66 154.50 129.08
  Q 161.51 123.72 170.49 122.48
  Q 186.99 120.20 202.01 122.82
  Q 212.96 124.73 216.34 133.94
  Q 218.07 138.66 217.14 146.19
  C 216.06 154.92 213.78 165.11 208.50 171.63
  C 202.30 179.28 192.32 183.17 183.79 186.41
  C 177.44 188.83 176.31 193.88 173.79 200.35
  A 0.77 0.76 10.7 0 1 173.08 200.83
  L 155.50 200.85
  Q 155.10 200.85 155.17 200.45
  C 156.73 191.25 159.60 181.74 167.23 176.67
  Q 172.34 173.28 182.61 168.96
  Q 201.47 161.02 196.40 140.55
  A 1.00 0.97 -89.2 0 0 195.74 139.85
  Z"
/>
<path fill="#ffffff" d="
  M 78.73 157.38
  L 103.77 157.67
  Q 104.87 157.68 104.70 158.76
  Q 102.48 173.10 98.71 187.11
  A 2.01 2.00 -82.6 0 1 96.79 188.59
  L 72.05 188.68
  Q 70.36 188.69 70.73 187.04
  L 77.14 158.63
  Q 77.43 157.36 78.73 157.38
  Z"
/>
<path fill="#ffffff" d="
  M 152.18 217.19
  C 153.01 214.38 154.66 214.58 157.12 214.54
  Q 163.72 214.42 169.64 214.65
  Q 170.94 214.70 170.79 216.00
  C 170.20 221.07 168.98 231.92 166.15 235.65
  Q 165.81 236.10 165.25 236.15
  Q 157.17 236.96 149.15 236.08
  A 1.39 1.39 0.0 0 1 147.93 234.42
  Q 149.58 226.05 152.18 217.19
  Z"
/>
</svg>
