<?xml version="1.0" encoding="UTF-8" standalone="no"?>
<!DOCTYPE svg PUBLIC "-//W3C//DTD SVG 1.1//EN" "http://www.w3.org/Graphics/SVG/1.1/DTD/svg11.dtd">
<svg class="icon-button-hover" xmlns="http://www.w3.org/2000/svg" version="1.1" viewBox="0.00 0.00 260.00 260.00">
<path fill="#ffffff" d="
  M 120.31 150.33
  A 0.98 0.98 0.0 0 0 119.47 148.98
  C 102.66 147.83 85.37 148.54 68.51 148.70
  Q 59.96 148.79 51.52 145.33
  C 43.53 142.06 39.35 137.66 37.15 129.49
  C 31.94 110.21 48.60 101.45 64.88 101.15
  Q 92.66 100.64 119.97 100.78
  A 2.01 1.99 -68.9 0 0 121.50 100.09
  Q 122.64 98.79 121.02 97.75
  Q 116.59 94.91 112.97 91.18
  C 100.70 78.54 104.01 59.71 118.81 51.29
  Q 128.48 45.79 138.81 51.39
  Q 142.65 53.48 148.45 59.52
  Q 168.05 79.95 188.41 99.60
  C 196.13 107.06 203.77 116.24 209.12 123.64
  Q 211.50 126.95 208.29 130.30
  Q 177.31 162.71 144.27 193.02
  Q 142.64 194.52 139.79 196.29
  C 115.47 211.33 93.63 181.69 110.29 160.53
  Q 111.53 158.95 114.77 156.06
  C 116.55 154.48 119.38 152.58 120.31 150.33
  Z"
/>
</svg>
